<?xml version="1.0" encoding="UTF-8"?>
<svg version="1.1" xmlns="http://www.w3.org/2000/svg" width="512" height="512">
<path d="M0 0 C13.20297353 9.55696411 23.09699625 21.59357257 28.80078125 37.02734375 C29.11917969 37.85492188 29.43757812 38.6825 29.765625 39.53515625 C35.50829783 57.68941229 32.72460715 79.00037943 24.23828125 95.71484375 C14.80892726 113.04313302 -0.86868004 124.81534242 -19.3359375 131.09375 C-39.91884039 136.78221582 -60.49041336 133.48906043 -78.9609375 123.13671875 C-95.21582127 112.5484953 -107.62134119 95.80452274 -111.76171875 76.70703125 C-114.27865383 55.53780939 -112.10062889 34.72698086 -98.90332031 17.31787109 C-91.40071421 8.14410688 -82.89084768 1.21115557 -72.38671875 -4.22265625 C-71.75934814 -4.55233398 -71.13197754 -4.88201172 -70.4855957 -5.22167969 C-48.1566678 -16.25486343 -20.67224314 -13.06668757 0 0 Z " fill="#010101" transform="translate(232.19921875,146.97265625)"/>
<path d="M0 0 C1.18237305 1.54394531 1.18237305 1.54394531 2.32421875 3.453125 C2.75395996 4.16968262 3.18370117 4.88624023 3.62646484 5.62451172 C6.06928805 9.84930194 8.46089234 14.09877886 10.8125 18.375 C11.56563477 19.72658203 11.56563477 19.72658203 12.33398438 21.10546875 C12.80771484 21.96527344 13.28144531 22.82507813 13.76953125 23.7109375 C14.19854736 24.48743652 14.62756348 25.26393555 15.06958008 26.06396484 C16 28 16 28 16 30 C17.00377686 29.98952637 18.00755371 29.97905273 19.04174805 29.96826172 C22.77836518 29.93196547 26.51496683 29.9090646 30.25170898 29.89013672 C31.86664453 29.88010104 33.481562 29.86646949 35.09643555 29.84912109 C37.42240875 29.82476535 39.74814095 29.81349253 42.07421875 29.8046875 C42.79212082 29.79436493 43.51002289 29.78404236 44.24967957 29.77340698 C49.1433898 29.77232037 52.85288195 30.34946211 56.7734375 33.36328125 C58.84600586 36.12890591 58.64670836 38.50763369 58.5390625 41.87890625 C57.10355888 50.19026415 52.5967756 58.0142262 48.68359375 65.41015625 C48.30912109 66.12671387 47.93464844 66.84327148 47.54882812 67.58154297 C46.82207771 68.95872862 46.07786188 70.32687403 45.31445312 71.68408203 C44.14879992 73.78041618 44.14879992 73.78041618 43 77 C44.17497008 80.80654068 46.12284628 84.19508864 48.0390625 87.67578125 C48.61914062 88.75150391 49.19921875 89.82722656 49.796875 90.93554688 C51.01250393 93.18108364 52.23903978 95.42075113 53.4765625 97.65429688 C59.23452508 108.41834522 59.23452508 108.41834522 58 115 C56.45410156 117.21533203 56.45410156 117.21533203 54 119 C51.21877947 119.21331618 48.83851176 119.20954182 46.0859375 119.01171875 C44.50827193 118.94922085 42.9303642 118.89261142 41.35229492 118.84130859 C40.1288588 118.79861847 40.1288588 118.79861847 38.88070679 118.75506592 C26.72617101 118.07036382 26.72617101 118.07036382 15.44384766 121.52099609 C11.86589755 125.35527696 10.2119638 129.87831234 8.71972656 134.83984375 C7.660764 138.01816829 5.92762013 140.61075821 4.0625 143.375 C3.53785156 144.20773438 3.01320313 145.04046875 2.47265625 145.8984375 C-0.93772631 150.76524338 -0.93772631 150.76524338 -4.12109375 151.46875 C-4.88550781 151.4790625 -5.64992188 151.489375 -6.4375 151.5 C-7.58025391 151.54640625 -7.58025391 151.54640625 -8.74609375 151.59375 C-12.87129493 150.50704189 -14.66792066 146.56407806 -16.73925781 143.0456543 C-17.30483398 141.98258057 -17.87041016 140.91950684 -18.453125 139.82421875 C-19.071875 138.66728516 -19.690625 137.51035156 -20.328125 136.31835938 C-20.96886232 135.10813237 -21.60948592 133.89784516 -22.25 132.6875 C-22.90577788 131.45743048 -23.56202353 130.22761021 -24.21875 128.99804688 C-25.8171136 126.00111513 -27.41067861 123.0017339 -29 120 C-30.06436279 119.9906543 -31.12872559 119.98130859 -32.2253418 119.97167969 C-36.18604911 119.93171343 -40.14598507 119.86593701 -44.10620117 119.79248047 C-45.8180142 119.76430914 -47.52995637 119.74307548 -49.24194336 119.72900391 C-51.70753919 119.70752035 -54.17158861 119.66084584 -56.63671875 119.609375 C-57.39836838 119.60814636 -58.16001801 119.60691772 -58.94474792 119.60565186 C-63.89452913 119.4701618 -66.54104907 118.56956056 -70 115 C-72.42527932 108.34338228 -68.80869822 101.36366809 -66.07348633 95.33178711 C-64.36834236 91.7009439 -62.55945471 88.13522882 -60.68359375 84.58984375 C-60.30912109 83.87328613 -59.93464844 83.15672852 -59.54882812 82.41845703 C-58.82207771 81.04127138 -58.07786188 79.67312597 -57.31445312 78.31591797 C-56.14879992 76.21958382 -56.14879992 76.21958382 -55 73 C-56.17497008 69.19345932 -58.12284628 65.80491136 -60.0390625 62.32421875 C-60.61914062 61.24849609 -61.19921875 60.17277344 -61.796875 59.06445312 C-63.01250393 56.81891636 -64.23903978 54.57924887 -65.4765625 52.34570312 C-68.70945803 46.30206471 -71.05120571 41.90104511 -70 35 C-67.79259319 32.03141843 -66.51402627 31.17134209 -63 30 C-60.41369776 29.91518227 -57.85521944 29.88401771 -55.26953125 29.90234375 C-54.14390022 29.90446617 -54.14390022 29.90446617 -52.99552917 29.90663147 C-50.6011454 29.9122244 -48.20685547 29.92477556 -45.8125 29.9375 C-44.18815239 29.94251592 -42.56380332 29.94707866 -40.93945312 29.95117188 C-36.95959931 29.96219152 -32.97981556 29.97945127 -29 30 C-28.71479492 29.25596924 -28.42958984 28.51193848 -28.13574219 27.74536133 C-27.16045503 25.38785829 -26.109987 23.27285194 -24.828125 21.07421875 C-24.20683716 20.00796265 -24.20683716 20.00796265 -23.57299805 18.92016602 C-13.21455853 1.43946304 -13.21455853 1.43946304 -8.5 -1.625 C-4.9037714 -2.16443429 -3.2195883 -1.74394366 0 0 Z " fill="#000000" transform="translate(326,9)"/>
<path d="M0 0 C1.74325688 3.84969228 2.32587124 5.93988725 1.07421875 10.01171875 C-1.82826967 14.19326986 -4.97304504 14.96768369 -9.6875 16.5 C-16.26664406 18.85738607 -21.95596107 20.99156605 -27 26 C-27.68191406 26.66773438 -28.36382812 27.33546875 -29.06640625 28.0234375 C-39.42769301 38.89992636 -42.64456084 50.81139915 -42.30859375 65.48046875 C-41.68108893 77.96547129 -35.62247125 87.86689997 -26.6875 96.3125 C-17.55148613 104.01663435 -7.67047293 107.08339654 4.1328125 107.55859375 C7.42568198 108.06553415 9.32269648 109.04065849 12 111 C14.34168764 114.51253146 14.49623677 115.86469356 14 120 C8.02472588 129.1309201 -5.44406025 133.97052523 -15.65234375 136.375 C-36.17495075 139.82236705 -56.67485142 136.76594392 -74 125 C-88.53558604 114.01448356 -99.66075248 98.67649793 -103.5625 80.6796875 C-106.08020462 59.50399332 -103.89108109 38.73379215 -90.72021484 21.30664062 C-71.01173401 -2.85447026 -28.66728325 -20.46935678 0 0 Z " fill="#010100" transform="translate(112,15)"/>
<path d="M0 0 C0.88837555 -0.01283524 1.7767511 -0.02567047 2.69204712 -0.03889465 C4.12331436 -0.04997505 4.12331436 -0.04997505 5.58349609 -0.0612793 C6.57513763 -0.06935104 7.56677917 -0.07742279 8.58847046 -0.08573914 C10.6881944 -0.09956165 12.78794063 -0.11029199 14.88769531 -0.11816406 C17.0231795 -0.12966257 19.15863542 -0.1500804 21.29394531 -0.1796875 C24.39065958 -0.22261083 27.48652029 -0.23856935 30.58349609 -0.2487793 C31.99654526 -0.27504143 31.99654526 -0.27504143 33.43814087 -0.30183411 C43.31800285 -0.26997632 51.26868663 2.9689574 58.43505859 9.7668457 C67.34959877 20.26354664 67.63927766 31.26252445 67.68505859 44.3371582 C67.69075867 45.60039413 67.69645874 46.86363007 67.70233154 48.16514587 C67.71175346 50.82872107 67.7186657 53.49218435 67.72216797 56.15576172 C67.72766711 59.55738721 67.75174864 62.9586154 67.78013992 66.360116 C67.80329726 69.62326627 67.80521611 72.88643728 67.81005859 76.1496582 C67.8224054 77.36541031 67.8347522 78.58116241 67.84747314 79.83375549 C67.81934711 90.50045888 67.81934711 90.50045888 64.48193359 95.17700195 C61.27016774 96.78288488 57.76934784 96.34227971 54.24023438 96.35400391 C53.38805328 96.3605751 52.53587219 96.3671463 51.65786743 96.37391663 C48.83099282 96.39366677 46.00417133 96.40531507 43.17724609 96.4152832 C41.73118799 96.42139649 41.73118799 96.42139649 40.2559166 96.42763329 C35.15498823 96.4484998 30.05408683 96.46279988 24.953125 96.47216797 C19.67794699 96.48324302 14.40318959 96.51765389 9.12816048 96.55733967 C5.0772929 96.58345019 1.02652646 96.59185477 -3.02441788 96.59544945 C-4.96931936 96.60032861 -6.91421594 96.61198022 -8.85903549 96.63048744 C-11.57889171 96.65476427 -14.29764736 96.65393518 -17.01757812 96.64697266 C-17.82291992 96.65978271 -18.62826172 96.67259277 -19.45800781 96.68579102 C-22.884698 96.6537687 -25.11500366 96.43934838 -28.01699829 94.55049133 C-29.98186991 91.44363571 -30.02550062 89.40069756 -30.03564453 85.73120117 C-30.04825317 84.42238983 -30.06086182 83.11357849 -30.07385254 81.7651062 C-30.06668824 80.33729517 -30.05848314 78.90948903 -30.04931641 77.48168945 C-30.05201342 76.00920353 -30.05589759 74.53671935 -30.06091309 73.0642395 C-30.06680947 69.9756782 -30.05824875 66.8875797 -30.03955078 63.79907227 C-30.01688051 59.8650724 -30.029806 55.9321714 -30.05384064 51.99821281 C-30.0683984 48.95413161 -30.06364541 45.91030423 -30.05332947 42.86621475 C-30.05068332 41.41753125 -30.05385661 39.96882379 -30.06324768 38.5201683 C-30.12501779 26.30232989 -28.32017199 17.21801065 -19.74072266 8.1574707 C-13.96708654 3.01294784 -7.73667141 0.09787615 0 0 Z " fill="#000000" transform="translate(421.51806640625,407.822998046875)"/>
<path d="M0 0 C0.88837555 -0.01283524 1.7767511 -0.02567047 2.69204712 -0.03889465 C4.12331436 -0.04997505 4.12331436 -0.04997505 5.58349609 -0.0612793 C6.57513763 -0.06935104 7.56677917 -0.07742279 8.58847046 -0.08573914 C10.6881944 -0.09956165 12.78794063 -0.11029199 14.88769531 -0.11816406 C17.0231795 -0.12966257 19.15863542 -0.1500804 21.29394531 -0.1796875 C24.39065958 -0.22261083 27.48652029 -0.23856935 30.58349609 -0.2487793 C31.99654526 -0.27504143 31.99654526 -0.27504143 33.43814087 -0.30183411 C43.31800285 -0.26997632 51.26868663 2.9689574 58.43505859 9.7668457 C67.34959877 20.26354664 67.63927766 31.26252445 67.68505859 44.3371582 C67.69075867 45.60039413 67.69645874 46.86363007 67.70233154 48.16514587 C67.71175346 50.82872107 67.7186657 53.49218435 67.72216797 56.15576172 C67.72766711 59.55738721 67.75174864 62.9586154 67.78013992 66.360116 C67.80329726 69.62326627 67.80521611 72.88643728 67.81005859 76.1496582 C67.8224054 77.36541031 67.8347522 78.58116241 67.84747314 79.83375549 C67.81934711 90.50045888 67.81934711 90.50045888 64.48193359 95.17700195 C61.27016774 96.78288488 57.76934784 96.34227971 54.24023438 96.35400391 C53.38805328 96.3605751 52.53587219 96.3671463 51.65786743 96.37391663 C48.83099282 96.39366677 46.00417133 96.40531507 43.17724609 96.4152832 C41.73118799 96.42139649 41.73118799 96.42139649 40.2559166 96.42763329 C35.15498823 96.4484998 30.05408683 96.46279988 24.953125 96.47216797 C19.67794699 96.48324302 14.40318959 96.51765389 9.12816048 96.55733967 C5.0772929 96.58345019 1.02652646 96.59185477 -3.02441788 96.59544945 C-4.96931936 96.60032861 -6.91421594 96.61198022 -8.85903549 96.63048744 C-11.57889171 96.65476427 -14.29764736 96.65393518 -17.01757812 96.64697266 C-17.82291992 96.65978271 -18.62826172 96.67259277 -19.45800781 96.68579102 C-22.884698 96.6537687 -25.11500366 96.43934838 -28.01699829 94.55049133 C-29.98186991 91.44363571 -30.02550062 89.40069756 -30.03564453 85.73120117 C-30.04825317 84.42238983 -30.06086182 83.11357849 -30.07385254 81.7651062 C-30.06668824 80.33729517 -30.05848314 78.90948903 -30.04931641 77.48168945 C-30.05201342 76.00920353 -30.05589759 74.53671935 -30.06091309 73.0642395 C-30.06680947 69.9756782 -30.05824875 66.8875797 -30.03955078 63.79907227 C-30.01688051 59.8650724 -30.029806 55.9321714 -30.05384064 51.99821281 C-30.0683984 48.95413161 -30.06364541 45.91030423 -30.05332947 42.86621475 C-30.05068332 41.41753125 -30.05385661 39.96882379 -30.06324768 38.5201683 C-30.12501779 26.30232989 -28.32017199 17.21801065 -19.74072266 8.1574707 C-13.96708654 3.01294784 -7.73667141 0.09787615 0 0 Z " fill="#000000" transform="translate(301.51806640625,407.822998046875)"/>
<path d="M0 0 C0.88837555 -0.01283524 1.7767511 -0.02567047 2.69204712 -0.03889465 C4.12331436 -0.04997505 4.12331436 -0.04997505 5.58349609 -0.0612793 C6.57513763 -0.06935104 7.56677917 -0.07742279 8.58847046 -0.08573914 C10.6881944 -0.09956165 12.78794063 -0.11029199 14.88769531 -0.11816406 C17.0231795 -0.12966257 19.15863542 -0.1500804 21.29394531 -0.1796875 C24.39065958 -0.22261083 27.48652029 -0.23856935 30.58349609 -0.2487793 C31.99654526 -0.27504143 31.99654526 -0.27504143 33.43814087 -0.30183411 C43.31800285 -0.26997632 51.26868663 2.9689574 58.43505859 9.7668457 C67.34959877 20.26354664 67.63927766 31.26252445 67.68505859 44.3371582 C67.69075867 45.60039413 67.69645874 46.86363007 67.70233154 48.16514587 C67.71175346 50.82872107 67.7186657 53.49218435 67.72216797 56.15576172 C67.72766711 59.55738721 67.75174864 62.9586154 67.78013992 66.360116 C67.80329726 69.62326627 67.80521611 72.88643728 67.81005859 76.1496582 C67.8224054 77.36541031 67.8347522 78.58116241 67.84747314 79.83375549 C67.81934711 90.50045888 67.81934711 90.50045888 64.48193359 95.17700195 C61.27016774 96.78288488 57.76934784 96.34227971 54.24023438 96.35400391 C53.38805328 96.3605751 52.53587219 96.3671463 51.65786743 96.37391663 C48.83099282 96.39366677 46.00417133 96.40531507 43.17724609 96.4152832 C41.73118799 96.42139649 41.73118799 96.42139649 40.2559166 96.42763329 C35.15498823 96.4484998 30.05408683 96.46279988 24.953125 96.47216797 C19.67794699 96.48324302 14.40318959 96.51765389 9.12816048 96.55733967 C5.0772929 96.58345019 1.02652646 96.59185477 -3.02441788 96.59544945 C-4.96931936 96.60032861 -6.91421594 96.61198022 -8.85903549 96.63048744 C-11.57889171 96.65476427 -14.29764736 96.65393518 -17.01757812 96.64697266 C-17.82291992 96.65978271 -18.62826172 96.67259277 -19.45800781 96.68579102 C-22.884698 96.6537687 -25.11500366 96.43934838 -28.01699829 94.55049133 C-29.98186991 91.44363571 -30.02550062 89.40069756 -30.03564453 85.73120117 C-30.04825317 84.42238983 -30.06086182 83.11357849 -30.07385254 81.7651062 C-30.06668824 80.33729517 -30.05848314 78.90948903 -30.04931641 77.48168945 C-30.05201342 76.00920353 -30.05589759 74.53671935 -30.06091309 73.0642395 C-30.06680947 69.9756782 -30.05824875 66.8875797 -30.03955078 63.79907227 C-30.01688051 59.8650724 -30.029806 55.9321714 -30.05384064 51.99821281 C-30.0683984 48.95413161 -30.06364541 45.91030423 -30.05332947 42.86621475 C-30.05068332 41.41753125 -30.05385661 39.96882379 -30.06324768 38.5201683 C-30.12501779 26.30232989 -28.32017199 17.21801065 -19.74072266 8.1574707 C-13.96708654 3.01294784 -7.73667141 0.09787615 0 0 Z " fill="#000000" transform="translate(173.51806640625,407.822998046875)"/>
<path d="M0 0 C0.88837555 -0.01283524 1.7767511 -0.02567047 2.69204712 -0.03889465 C4.12331436 -0.04997505 4.12331436 -0.04997505 5.58349609 -0.0612793 C6.57513763 -0.06935104 7.56677917 -0.07742279 8.58847046 -0.08573914 C10.6881944 -0.09956165 12.78794063 -0.11029199 14.88769531 -0.11816406 C17.0231795 -0.12966257 19.15863542 -0.1500804 21.29394531 -0.1796875 C24.39065958 -0.22261083 27.48652029 -0.23856935 30.58349609 -0.2487793 C31.99654526 -0.27504143 31.99654526 -0.27504143 33.43814087 -0.30183411 C43.49835302 -0.26939478 51.22502741 3.06426778 58.50146484 9.9543457 C64.39298276 16.56632538 66.58547515 22.99235023 66.65893555 31.71801758 C66.66550674 32.36566574 66.67207794 33.0133139 66.67884827 33.68058777 C66.69849305 35.81481047 66.71022053 37.9489633 66.72021484 40.08325195 C66.72429037 40.81377274 66.7283659 41.54429352 66.73256493 42.29695129 C66.75338239 46.15947178 66.76770589 50.02195713 66.77709961 53.88452148 C66.78818916 57.87279095 66.8226298 61.86050635 66.86227131 65.84857941 C66.88839972 68.91808109 66.89678775 71.98744949 66.90038109 75.05705261 C66.90525246 76.5274787 66.91688225 77.99789863 66.93541908 79.46821594 C66.95974503 81.52459013 66.95885946 83.5795126 66.9519043 85.63598633 C66.95777054 86.80528687 66.96363678 87.9745874 66.96968079 89.17932129 C66.48193359 92.17700195 66.48193359 92.17700195 64.9818573 94.5534668 C61.42552885 96.86306699 58.11730983 96.73600467 54.01318359 96.69458008 C53.16071045 96.70158936 52.3082373 96.70859863 51.42993164 96.71582031 C48.6136004 96.73341764 45.79827496 96.72177155 42.98193359 96.70825195 C41.02424934 96.71094637 39.06656639 96.71482837 37.10888672 96.71984863 C33.00654353 96.72574603 28.90454878 96.71717288 24.80224609 96.69848633 C19.54272731 96.67569671 14.28402496 96.68881848 9.02453613 96.71277618 C4.98219649 96.72722758 0.94005054 96.72263118 -3.10229492 96.71226501 C-5.04158627 96.70959591 -6.98089518 96.71287393 -8.92016602 96.72218323 C-11.63035691 96.73233797 -14.33922415 96.71686323 -17.04931641 96.69458008 C-18.25261597 96.70672546 -18.25261597 96.70672546 -19.48022461 96.71911621 C-22.89607932 96.66706226 -25.12513973 96.43342239 -28.01501465 94.54751587 C-29.98374834 91.44255918 -30.0254998 89.40099182 -30.03564453 85.73120117 C-30.04825317 84.42238983 -30.06086182 83.11357849 -30.07385254 81.7651062 C-30.06668824 80.33729517 -30.05848314 78.90948903 -30.04931641 77.48168945 C-30.05201342 76.00920353 -30.05589759 74.53671935 -30.06091309 73.0642395 C-30.06680947 69.9756782 -30.05824875 66.8875797 -30.03955078 63.79907227 C-30.01688051 59.8650724 -30.029806 55.9321714 -30.05384064 51.99821281 C-30.0683984 48.95413161 -30.06364541 45.91030423 -30.05332947 42.86621475 C-30.05068332 41.41753125 -30.05385661 39.96882379 -30.06324768 38.5201683 C-30.12501779 26.30232989 -28.32017199 17.21801065 -19.74072266 8.1574707 C-13.96708654 3.01294784 -7.73667141 0.09787615 0 0 Z " fill="#000000" transform="translate(53.51806640625,407.822998046875)"/>
<path d="M0 0 C4.82994231 2.98272927 8.21238472 6.49296518 10.234375 11.89453125 C10.68229133 15.23029261 10.61714658 18.47444227 10.484375 21.83203125 C10.46632813 22.70666016 10.44828125 23.58128906 10.4296875 24.48242188 C10.38295853 26.62027233 10.31122941 28.7575517 10.234375 30.89453125 C11.00515381 30.86311035 11.77593262 30.83168945 12.57006836 30.79931641 C16.10369851 30.67365501 19.63685729 30.59626032 23.171875 30.51953125 C24.38423828 30.46925781 25.59660156 30.41898438 26.84570312 30.3671875 C34.97313767 30.23503409 40.17538294 31.30042788 46.234375 36.89453125 C50.81894999 42.26183856 50.96067865 47.48589566 50.74609375 54.44140625 C49.76185158 61.08316254 46.71799983 64.99949842 41.48071289 68.99560547 C35.8841057 72.13463145 29.51548272 71.3141 23.296875 71.14453125 C22.04068359 71.12648438 20.78449219 71.1084375 19.49023438 71.08984375 C16.40415584 71.04290719 13.31966719 70.97725539 10.234375 70.89453125 C10.24769867 71.61370224 10.26102234 72.33287323 10.27474976 73.07383728 C10.39546901 79.88439813 10.4865725 86.69479706 10.54524803 93.50615597 C10.57643011 97.00725756 10.61865448 100.50746789 10.68701172 104.00805664 C10.7652803 108.04191141 10.79390053 112.07484483 10.8203125 116.109375 C10.85128021 117.35347641 10.88224792 118.59757782 10.91415405 119.87937927 C10.91720701 127.83229537 9.66879061 132.94752278 4.234375 138.89453125 C-1.13293231 143.47910624 -6.35698941 143.6208349 -13.3125 143.40625 C-19.95516427 142.42187328 -23.88910332 139.38371426 -27.85791016 134.11914062 C-30.93646855 128.58834693 -30.25750406 122.4570074 -30.15625 116.3046875 C-30.15059021 115.00502548 -30.14493042 113.70536346 -30.13909912 112.36631775 C-30.12391703 108.93179862 -30.08470194 105.49796952 -30.0402832 102.0637207 C-29.99916826 98.55103893 -29.98105374 95.0382443 -29.9609375 91.52539062 C-29.91819841 84.64815627 -29.85003929 77.771377 -29.765625 70.89453125 C-30.53640381 70.92595215 -31.30718262 70.95737305 -32.10131836 70.98974609 C-35.63494851 71.11540749 -39.16810729 71.19280218 -42.703125 71.26953125 C-43.91548828 71.31980469 -45.12785156 71.37007813 -46.37695312 71.421875 C-54.50438767 71.55402841 -59.70663294 70.48863462 -65.765625 64.89453125 C-70.35019999 59.52722394 -70.49192865 54.30316684 -70.27734375 47.34765625 C-69.28089006 40.62349545 -66.15847783 36.76805613 -60.921875 32.66796875 C-55.36994648 29.65274158 -48.95384337 30.47749541 -42.828125 30.64453125 C-40.94383789 30.67160156 -40.94383789 30.67160156 -39.02148438 30.69921875 C-35.93540584 30.74615531 -32.85091719 30.81180711 -29.765625 30.89453125 C-29.87003906 28.99380859 -29.87003906 28.99380859 -29.9765625 27.0546875 C-30.62185934 10.42055235 -30.62185934 10.42055235 -25.51171875 4.49609375 C-18.382352 -2.04314645 -9.25401502 -3.69899188 0 0 Z " fill="#000000" transform="translate(449.765625,137.10546875)"/>
<path d="M0 0 C5.1329028 5.15746214 8.26539113 9.75275304 8.375 17.25 C8.2314345 24.35170696 6.14484456 29.53342876 1.5 34.875 C-4.17601484 39.69961261 -8.27374099 42.0027731 -15.87524414 42.58081055 C-24.6494434 43.25951577 -31.51043214 45.13178089 -39 50 C-39.74765625 50.48082031 -40.4953125 50.96164063 -41.265625 51.45703125 C-48.37645183 56.81729193 -52.23611415 65.70834246 -55 74 C-55.09584167 76.26919248 -55.12983751 78.54128959 -55.125 80.8125 C-55.12757813 82.01519531 -55.13015625 83.21789062 -55.1328125 84.45703125 C-55.01006118 87.73160318 -54.62001918 90.78672598 -54 94 C-65.75570725 86.48856108 -72.11472279 74.57819208 -75.3125 61.1875 C-78.41055352 42.41870974 -73.34042967 28.15319752 -62.8125 12.8125 C-47.8001562 -2.1998438 -19.31157411 -15.53322265 0 0 Z " fill="#FCFCFC" transform="translate(212,158)"/>
<path d="M0 0 C0.84151108 -0.00145523 1.68302216 -0.00291046 2.55003357 -0.00440979 C4.31911705 -0.00275831 6.08821603 0.00871831 7.85717773 0.02954102 C10.55449795 0.0585497 13.2498556 0.05012373 15.94726562 0.03710938 C17.67318657 0.04334635 19.39910135 0.05173698 21.125 0.0625 C21.9251503 0.05956436 22.7253006 0.05662872 23.54969788 0.05360413 C29.25433115 0.14909391 33.56142384 1.20433947 37.859375 5.25 C38.33761719 5.84683594 38.81585938 6.44367188 39.30859375 7.05859375 C40.04529297 7.95771484 40.04529297 7.95771484 40.796875 8.875 C43.01775819 11.87717108 43.11852551 13.8093434 43.10961914 17.49658203 C43.10949829 18.55208252 43.10937744 19.60758301 43.10925293 20.69506836 C43.10413696 21.80760986 43.099021 22.92015137 43.09375 24.06640625 C43.09274292 25.08661865 43.09173584 26.10683105 43.09069824 27.15795898 C43.08545538 30.9790153 43.07149418 34.80005562 43.05859375 38.62109375 C43.03796875 47.15984375 43.01734375 55.69859375 42.99609375 64.49609375 C21.87609375 64.49609375 0.75609375 64.49609375 -21.00390625 64.49609375 C-21.10703125 56.08109375 -21.21015625 47.66609375 -21.31640625 38.99609375 C-21.36192627 36.35416016 -21.40744629 33.71222656 -21.4543457 30.99023438 C-21.46895961 28.87761705 -21.48169814 26.76498558 -21.4921875 24.65234375 C-21.51776733 23.57049805 -21.54334717 22.48865234 -21.56970215 21.37402344 C-21.57362119 14.53294804 -20.81236958 9.59380351 -16.00390625 4.49609375 C-11.13264627 0.2916925 -6.23052692 -0.08769743 0 0 Z " fill="#35B284" transform="translate(429.00390625,423.50390625)"/>
<path d="M0 0 C0.84151108 -0.00145523 1.68302216 -0.00291046 2.55003357 -0.00440979 C4.31911705 -0.00275831 6.08821603 0.00871831 7.85717773 0.02954102 C10.55449795 0.0585497 13.2498556 0.05012373 15.94726562 0.03710938 C17.67318657 0.04334635 19.39910135 0.05173698 21.125 0.0625 C21.9251503 0.05956436 22.7253006 0.05662872 23.54969788 0.05360413 C29.25433115 0.14909391 33.56142384 1.20433947 37.859375 5.25 C38.33761719 5.84683594 38.81585938 6.44367188 39.30859375 7.05859375 C40.04529297 7.95771484 40.04529297 7.95771484 40.796875 8.875 C43.01775819 11.87717108 43.11852551 13.8093434 43.10961914 17.49658203 C43.10949829 18.55208252 43.10937744 19.60758301 43.10925293 20.69506836 C43.10413696 21.80760986 43.099021 22.92015137 43.09375 24.06640625 C43.09274292 25.08661865 43.09173584 26.10683105 43.09069824 27.15795898 C43.08545538 30.9790153 43.07149418 34.80005562 43.05859375 38.62109375 C43.03796875 47.15984375 43.01734375 55.69859375 42.99609375 64.49609375 C21.87609375 64.49609375 0.75609375 64.49609375 -21.00390625 64.49609375 C-21.10703125 56.08109375 -21.21015625 47.66609375 -21.31640625 38.99609375 C-21.36192627 36.35416016 -21.40744629 33.71222656 -21.4543457 30.99023438 C-21.46895961 28.87761705 -21.48169814 26.76498558 -21.4921875 24.65234375 C-21.51776733 23.57049805 -21.54334717 22.48865234 -21.56970215 21.37402344 C-21.57362119 14.53294804 -20.81236958 9.59380351 -16.00390625 4.49609375 C-11.13264627 0.2916925 -6.23052692 -0.08769743 0 0 Z " fill="#E56C66" transform="translate(309.00390625,423.50390625)"/>
<path d="M0 0 C0.84151108 -0.00145523 1.68302216 -0.00291046 2.55003357 -0.00440979 C4.31911705 -0.00275831 6.08821603 0.00871831 7.85717773 0.02954102 C10.55449795 0.0585497 13.2498556 0.05012373 15.94726562 0.03710938 C17.67318657 0.04334635 19.39910135 0.05173698 21.125 0.0625 C21.9251503 0.05956436 22.7253006 0.05662872 23.54969788 0.05360413 C29.25433115 0.14909391 33.56142384 1.20433947 37.859375 5.25 C38.33761719 5.84683594 38.81585938 6.44367188 39.30859375 7.05859375 C40.04529297 7.95771484 40.04529297 7.95771484 40.796875 8.875 C43.01775819 11.87717108 43.11852551 13.8093434 43.10961914 17.49658203 C43.10949829 18.55208252 43.10937744 19.60758301 43.10925293 20.69506836 C43.10413696 21.80760986 43.099021 22.92015137 43.09375 24.06640625 C43.09274292 25.08661865 43.09173584 26.10683105 43.09069824 27.15795898 C43.08545538 30.9790153 43.07149418 34.80005562 43.05859375 38.62109375 C43.03796875 47.15984375 43.01734375 55.69859375 42.99609375 64.49609375 C21.87609375 64.49609375 0.75609375 64.49609375 -21.00390625 64.49609375 C-21.10703125 56.08109375 -21.21015625 47.66609375 -21.31640625 38.99609375 C-21.36192627 36.35416016 -21.40744629 33.71222656 -21.4543457 30.99023438 C-21.46895961 28.87761705 -21.48169814 26.76498558 -21.4921875 24.65234375 C-21.51776733 23.57049805 -21.54334717 22.48865234 -21.56970215 21.37402344 C-21.57362119 14.53294804 -20.81236958 9.59380351 -16.00390625 4.49609375 C-11.13264627 0.2916925 -6.23052692 -0.08769743 0 0 Z " fill="#FEE08E" transform="translate(181.00390625,423.50390625)"/>
<path d="M0 0 C0.84151108 -0.00145523 1.68302216 -0.00291046 2.55003357 -0.00440979 C4.31911705 -0.00275831 6.08821603 0.00871831 7.85717773 0.02954102 C10.55449795 0.0585497 13.2498556 0.05012373 15.94726562 0.03710938 C17.67318657 0.04334635 19.39910135 0.05173698 21.125 0.0625 C21.9251503 0.05956436 22.7253006 0.05662872 23.54969788 0.05360413 C29.25433115 0.14909391 33.56142384 1.20433947 37.859375 5.25 C38.33761719 5.84683594 38.81585938 6.44367188 39.30859375 7.05859375 C40.04529297 7.95771484 40.04529297 7.95771484 40.796875 8.875 C43.01775819 11.87717108 43.11852551 13.8093434 43.10961914 17.49658203 C43.10949829 18.55208252 43.10937744 19.60758301 43.10925293 20.69506836 C43.10413696 21.80760986 43.099021 22.92015137 43.09375 24.06640625 C43.09274292 25.08661865 43.09173584 26.10683105 43.09069824 27.15795898 C43.08545538 30.9790153 43.07149418 34.80005562 43.05859375 38.62109375 C43.03796875 47.15984375 43.01734375 55.69859375 42.99609375 64.49609375 C21.87609375 64.49609375 0.75609375 64.49609375 -21.00390625 64.49609375 C-21.10703125 56.08109375 -21.21015625 47.66609375 -21.31640625 38.99609375 C-21.36192627 36.35416016 -21.40744629 33.71222656 -21.4543457 30.99023438 C-21.46895961 28.87761705 -21.48169814 26.76498558 -21.4921875 24.65234375 C-21.51776733 23.57049805 -21.54334717 22.48865234 -21.56970215 21.37402344 C-21.57362119 14.53294804 -20.81236958 9.59380351 -16.00390625 4.49609375 C-11.13264627 0.2916925 -6.23052692 -0.08769743 0 0 Z " fill="#6C9EEC" transform="translate(61.00390625,423.50390625)"/>
<path d="M0 0 C9.98614542 11.84503829 13.24465159 24.78413431 12 40 C9.55453714 56.18551543 2.54338372 69.86517621 -10.75 79.75 C-16.16778394 83.3479428 -21.90734395 85.77817671 -28 88 C-29.175625 88.433125 -30.35125 88.86625 -31.5625 89.3125 C-38.77379989 90.75475998 -45.64421222 91.13287888 -52.15234375 87.32421875 C-58.15380488 83.02296014 -62.55070823 78.40174009 -64 71 C-64.83251423 63.88200336 -64.44924118 57.81004633 -60 52 C-53.8482721 45.53839028 -48.9476642 41.91479026 -39.875 41.625 C-28.27007109 40.85221128 -17.85530546 36.35154082 -9.75 27.875 C-3.3910342 19.83797378 -1.18368853 9.964184 0 0 Z " fill="#6782AD" transform="translate(236,174)"/>
<path d="M0 0 C8.34468007 4.97590182 13.53387008 11.86345977 16.109375 21.2578125 C17.10789012 32.35758522 16.45884702 41.9922991 9.359375 51.0703125 C3.70168013 57.1280464 -3.34488592 60.84888618 -11.625 61.59375 C-22.35447774 61.83515993 -31.19802606 60.58332943 -39.359375 52.9609375 C-46.75303791 44.73737365 -48.47252567 36.02335615 -48.203125 25.24609375 C-47.72879865 16.86039919 -44.11592977 9.8548755 -37.890625 4.2578125 C-27.15195714 -3.81766573 -12.32399863 -5.91386512 0 0 Z " fill="#000000" transform="translate(455.890625,338.7421875)"/>
<path d="M0 0 C8.34468007 4.97590182 13.53387008 11.86345977 16.109375 21.2578125 C17.10789012 32.35758522 16.45884702 41.9922991 9.359375 51.0703125 C3.70168013 57.1280464 -3.34488592 60.84888618 -11.625 61.59375 C-22.35447774 61.83515993 -31.19802606 60.58332943 -39.359375 52.9609375 C-46.75303791 44.73737365 -48.47252567 36.02335615 -48.203125 25.24609375 C-47.72879865 16.86039919 -44.11592977 9.8548755 -37.890625 4.2578125 C-27.15195714 -3.81766573 -12.32399863 -5.91386512 0 0 Z " fill="#000000" transform="translate(335.890625,338.7421875)"/>
<path d="M0 0 C8.34468007 4.97590182 13.53387008 11.86345977 16.109375 21.2578125 C17.10789012 32.35758522 16.45884702 41.9922991 9.359375 51.0703125 C3.70168013 57.1280464 -3.34488592 60.84888618 -11.625 61.59375 C-22.35447774 61.83515993 -31.19802606 60.58332943 -39.359375 52.9609375 C-46.75303791 44.73737365 -48.47252567 36.02335615 -48.203125 25.24609375 C-47.72879865 16.86039919 -44.11592977 9.8548755 -37.890625 4.2578125 C-27.15195714 -3.81766573 -12.32399863 -5.91386512 0 0 Z " fill="#000000" transform="translate(207.890625,338.7421875)"/>
<path d="M0 0 C8.34468007 4.97590182 13.53387008 11.86345977 16.109375 21.2578125 C17.10789012 32.35758522 16.45884702 41.9922991 9.359375 51.0703125 C3.70168013 57.1280464 -3.34488592 60.84888618 -11.625 61.59375 C-22.35447774 61.83515993 -31.19802606 60.58332943 -39.359375 52.9609375 C-46.75303791 44.73737365 -48.47252567 36.02335615 -48.203125 25.24609375 C-47.72879865 16.86039919 -44.11592977 9.8548755 -37.890625 4.2578125 C-27.15195714 -3.81766573 -12.32399863 -5.91386512 0 0 Z " fill="#000000" transform="translate(87.890625,338.7421875)"/>
<path d="M0 0 C-0.66 0.639375 -1.32 1.27875 -2 1.9375 C-3.0033796 2.95501171 -4.00289552 3.97633826 -5 5 C-5.90685547 5.91265625 -5.90685547 5.91265625 -6.83203125 6.84375 C-18.73128157 19.42362805 -25.67655888 34.80068642 -25.3347168 52.24291992 C-24.56192981 71.43652071 -16.98110057 87.8246638 -3 101 C-0.23010109 103.00048255 2.5743018 104.79760582 5.51953125 106.52734375 C7.81266309 107.88877793 9.90015303 109.36025936 12 111 C5.18958413 114.40520794 -6.87791858 112.40423781 -13.875 110.375 C-30.89685853 104.31853348 -41.95859495 94.28291455 -49.67578125 78.05859375 C-55.43961979 64.74565694 -56.12271615 49.69096023 -51 36 C-43.4143028 18.75230366 -31.95170475 8.95608468 -14.7265625 1.9453125 C-9.71258957 0.20694366 -5.30189094 -0.10395865 0 0 Z " fill="#FBD97E" transform="translate(78,24)"/>
<path d="M0 0 C2.97919445 2.12799604 4.63382962 3.99142543 5.890625 7.453125 C6.99413876 10.44837664 7.91092225 12.56558491 10 15 C13.91066873 16.27865686 17.31199394 16.79351139 21.40625 17.20703125 C25.73379441 18.16191333 27.28326918 19.55812674 30 23 C30.75 26.3125 30.75 26.3125 30 30 C28.46039946 32.19644099 26.78951055 34.08430751 24.921875 36.0078125 C24.28765625 36.66523437 23.6534375 37.32265625 23 38 C22.24332031 38.76183594 21.48664063 39.52367187 20.70703125 40.30859375 C18.39046804 43.96102407 19.02966005 45.77769605 19.9375 49.9375 C20.85748391 54.1860689 21.27651868 56.28600401 19.69140625 60.37890625 C18 63 18 63 16 64 C9.55165987 64.69089358 5.93804642 63.30070942 0.39453125 59.99609375 C-2.5836191 58.75722207 -3.96007147 59.02566393 -7 60 C-8.29388438 60.64306829 -9.56663814 61.33072009 -10.8125 62.0625 C-15.16872409 64.31060808 -18.12626546 64.64983127 -23 64 C-26.0085102 61.99432653 -26.81944193 60.75321561 -27.66015625 57.24609375 C-28.02123561 53.79716335 -27.59839161 51.09085229 -27 47.6875 C-26.5903005 43.52380971 -26.5093412 41.71680607 -28.8984375 38.2265625 C-31.17551599 36.00694972 -33.5337807 34.00323017 -36 32 C-37.56935594 28.86128812 -37.35201103 26.46144178 -37 23 C-34.32535421 19.54018357 -32.81413379 18.15885537 -28.4765625 17.3125 C-27.20554687 17.209375 -25.93453125 17.10625 -24.625 17 C-20.12617814 16.4172426 -17.53714924 15.66409608 -14.5703125 11.99609375 C-12.7172917 8.49002073 -12.7172917 8.49002073 -11.296875 4.93359375 C-8.90398615 -0.47923616 -5.46469737 -0.65953244 0 0 Z " fill="#000000" transform="translate(113,40)"/>
<path d="M0 0 C9.24 0 18.48 0 28 0 C33.75 10.5625 33.75 10.5625 35.53808594 13.84985352 C36.01536133 14.72569092 36.49263672 15.60152832 36.984375 16.50390625 C37.49677734 17.45410645 38.00917969 18.40430664 38.53710938 19.38330078 C39.4259364 20.97316194 40.35532311 22.54234202 41.35351562 24.06591797 C43.18423222 26.86045301 44.07661067 28.42340391 43.62890625 31.79296875 C41.27236287 36.43259014 38.65606878 40.87694041 35.9375 45.3125 C35.38255859 46.23095703 34.82761719 47.14941406 34.25585938 48.09570312 C30.16870301 54.83129699 30.16870301 54.83129699 29 56 C27.00035018 56.08758003 24.9976389 56.10696576 22.99609375 56.09765625 C21.78115234 56.09443359 20.56621094 56.09121094 19.31445312 56.08789062 C18.03505859 56.07951172 16.75566406 56.07113281 15.4375 56.0625 C14.15423828 56.05798828 12.87097656 56.05347656 11.54882812 56.04882812 C8.36583978 56.03699545 5.18294238 56.02051068 2 56 C1.58637207 55.22809326 1.17274414 54.45618652 0.74658203 53.66088867 C-0.79160088 50.79207603 -2.33113422 47.92399351 -3.87158203 45.05639648 C-4.53748769 43.81612694 -5.20285736 42.57556947 -5.86767578 41.3347168 C-6.82443064 39.54920344 -7.78312056 37.76474103 -8.7421875 35.98046875 C-9.3182373 34.90692139 -9.89428711 33.83337402 -10.48779297 32.72729492 C-12.00309616 29.9069103 -12.00309616 29.9069103 -14 27 C-13.63316044 23.45247877 -11.80644173 20.63261662 -10.05859375 17.578125 C-9.53322021 16.65418945 -9.00784668 15.73025391 -8.46655273 14.77832031 C-7.79696533 13.61397461 -7.12737793 12.44962891 -6.4375 11.25 C-4.313125 7.5375 -2.18875 3.825 0 0 Z " fill="#FDB55D" transform="translate(305,56)"/>
<path d="M0 0 C4.55555556 0.55555556 4.55555556 0.55555556 6 2 C6.13346992 3.73248084 6.20345253 5.46994006 6.24609375 7.20703125 C6.27896484 8.26857422 6.31183594 9.33011719 6.34570312 10.42382812 C6.40658103 12.67112967 6.46391074 14.91853032 6.51757812 17.16601562 C6.55173828 18.23142578 6.58589844 19.29683594 6.62109375 20.39453125 C6.6461499 21.37268799 6.67120605 22.35084473 6.69702148 23.35864258 C7.00664391 26.05792136 7.53683424 27.72529783 9 30 C11.98537677 31.49268839 15.06700019 31.19759385 18.34375 31.24609375 C19.83203738 31.27902092 21.32031849 31.31223275 22.80859375 31.34570312 C25.15897459 31.39320297 27.50932795 31.43765537 29.85986328 31.47680664 C32.1255912 31.51642722 34.3908039 31.5679826 36.65625 31.62109375 C37.36148804 31.6295079 38.06672607 31.63792206 38.79333496 31.64659119 C43.77329855 31.77329855 43.77329855 31.77329855 46 34 C45.44444444 38.55555556 45.44444444 38.55555556 44 40 C41.60045839 40.11053149 39.22482112 40.16158382 36.82421875 40.17578125 C35.34178276 40.19898521 33.85936085 40.22310278 32.37695312 40.24804688 C30.03318967 40.2831383 27.68994119 40.312486 25.34594727 40.32592773 C23.0880643 40.34142044 20.83169981 40.38164183 18.57421875 40.42578125 C17.87616623 40.42387283 17.17811371 40.42196442 16.45890808 40.41999817 C13.30298113 40.49919439 11.372494 40.72141979 8.81541443 42.63380432 C6.44959966 45.7173871 6.49550081 47.52549018 6.48583984 51.38916016 C6.4725766 52.68375153 6.45931335 53.9783429 6.44564819 55.31216431 C6.45062036 56.72113082 6.45571983 58.13009688 6.4609375 59.5390625 C6.45103093 60.98588548 6.43908982 62.43269584 6.42520142 63.87948608 C6.39285242 67.682916 6.38244774 71.48605787 6.37835693 75.28961182 C6.36959586 81.38460829 6.33420064 87.47936852 6.2861824 93.57416916 C6.27356649 95.70477806 6.27435754 97.83508996 6.27645874 99.96572876 C6.26602036 101.89815933 6.26602036 101.89815933 6.25537109 103.86962891 C6.25411224 105.00784088 6.25285339 106.14605286 6.2515564 107.3187561 C6 110 6 110 4 112 C-0.55555556 111.44444444 -0.55555556 111.44444444 -2 110 C-2.11323579 107.99145219 -2.15684976 105.97895278 -2.17358398 103.96728516 C-2.18707382 102.67569489 -2.20056366 101.38410461 -2.21446228 100.05337524 C-2.21952223 99.35867756 -2.22458218 98.66397987 -2.22979546 97.94823074 C-2.24616427 95.77972032 -2.26940057 93.61138621 -2.29469299 91.44296265 C-2.36557897 85.27619164 -2.42558573 79.10934783 -2.47680664 72.94238281 C-2.50858858 69.17397545 -2.5498646 65.4057687 -2.59700203 61.63752365 C-2.61303022 60.19983911 -2.62534803 58.76210829 -2.63390923 57.32435989 C-2.64605478 55.31333454 -2.67123716 53.30240064 -2.69702148 51.29150391 C-2.70732895 50.14646393 -2.71763641 49.00142395 -2.72825623 47.82168579 C-2.79553398 44.79495008 -2.79553398 44.79495008 -5 42 C-8.54832067 40.81722644 -11.4789287 40.82217463 -15.22265625 40.75390625 C-16.6621159 40.72098713 -18.10156887 40.68777518 -19.54101562 40.65429688 C-21.80798036 40.60676573 -24.07491438 40.56228594 -26.34204102 40.52319336 C-28.53168809 40.48357998 -30.72080133 40.43203409 -32.91015625 40.37890625 C-34.22121338 40.3538501 -35.53227051 40.32879395 -36.88305664 40.30297852 C-40 40 -40 40 -42 38 C-41.44444444 33.44444444 -41.44444444 33.44444444 -40 32 C-37.68344611 31.86540248 -35.36304253 31.79628659 -33.04296875 31.75390625 C-31.60611395 31.7209568 -30.16926514 31.68774534 -28.73242188 31.65429688 C-26.46122526 31.6069445 -24.19005102 31.5625442 -21.91870117 31.52319336 C-19.73069164 31.48338536 -17.54319438 31.4318499 -15.35546875 31.37890625 C-14.04215576 31.3538501 -12.72884277 31.32879395 -11.37573242 31.30297852 C-8.2834839 31.02544323 -6.49116392 30.80889237 -4 29 C-2.98345923 25.95037769 -2.83218455 23.72357583 -2.75390625 20.52734375 C-2.72103516 19.46322266 -2.68816406 18.39910156 -2.65429688 17.30273438 C-2.59299529 15.05544434 -2.53571699 12.80804103 -2.48242188 10.56054688 C-2.44826172 9.49771484 -2.41410156 8.43488281 -2.37890625 7.33984375 C-2.34132202 5.87599243 -2.34132202 5.87599243 -2.30297852 4.38256836 C-2 2 -2 2 0 0 Z " fill="#6883AE" transform="translate(438,152)"/>
<path d="M0 0 C5.54648833 1.98551333 9.38327402 5.76654805 12 11 C12.54360446 15.95482094 12.56437074 19.87125852 10.3125 24.375 C6.72054254 28.45235712 3.52833982 31.59004052 -2.05078125 32.23828125 C-7.58896758 32.42001793 -10.64755155 31.74513006 -15 28 C-19.3022759 23.23261319 -20.36282503 19.56252705 -20.28125 13.28125 C-19.69180611 8.50020514 -16.85179203 5.75038822 -13.375 2.6875 C-8.9477123 -0.45820442 -5.33698346 -0.62993903 0 0 Z " fill="#F9C4B4" transform="translate(444,352)"/>
<path d="M0 0 C5.54648833 1.98551333 9.38327402 5.76654805 12 11 C12.54360446 15.95482094 12.56437074 19.87125852 10.3125 24.375 C6.72054254 28.45235712 3.52833982 31.59004052 -2.05078125 32.23828125 C-7.58896758 32.42001793 -10.64755155 31.74513006 -15 28 C-19.3022759 23.23261319 -20.36282503 19.56252705 -20.28125 13.28125 C-19.69180611 8.50020514 -16.85179203 5.75038822 -13.375 2.6875 C-8.9477123 -0.45820442 -5.33698346 -0.62993903 0 0 Z " fill="#F9C4B4" transform="translate(324,352)"/>
<path d="M0 0 C5.54648833 1.98551333 9.38327402 5.76654805 12 11 C12.54360446 15.95482094 12.56437074 19.87125852 10.3125 24.375 C6.72054254 28.45235712 3.52833982 31.59004052 -2.05078125 32.23828125 C-7.58896758 32.42001793 -10.64755155 31.74513006 -15 28 C-19.3022759 23.23261319 -20.36282503 19.56252705 -20.28125 13.28125 C-19.69180611 8.50020514 -16.85179203 5.75038822 -13.375 2.6875 C-8.9477123 -0.45820442 -5.33698346 -0.62993903 0 0 Z " fill="#F9C4B4" transform="translate(196,352)"/>
<path d="M0 0 C5.54648833 1.98551333 9.38327402 5.76654805 12 11 C12.54360446 15.95482094 12.56437074 19.87125852 10.3125 24.375 C6.72054254 28.45235712 3.52833982 31.59004052 -2.05078125 32.23828125 C-7.58896758 32.42001793 -10.64755155 31.74513006 -15 28 C-19.3022759 23.23261319 -20.36282503 19.56252705 -20.28125 13.28125 C-19.69180611 8.50020514 -16.85179203 5.75038822 -13.375 2.6875 C-8.9477123 -0.45820442 -5.33698346 -0.62993903 0 0 Z " fill="#F9C4B4" transform="translate(76,352)"/>
<path d="M0 0 C5.28 0 10.56 0 16 0 C16 5.28 16 10.56 16 16 C10.72 16 5.44 16 0 16 C0 10.72 0 5.44 0 0 Z " fill="#000000" transform="translate(432,300)"/>
<path d="M0 0 C5.28 0 10.56 0 16 0 C16 5.28 16 10.56 16 16 C10.72 16 5.44 16 0 16 C0 10.72 0 5.44 0 0 Z " fill="#000000" transform="translate(312,300)"/>
<path d="M0 0 C5.28 0 10.56 0 16 0 C16 5.28 16 10.56 16 16 C10.72 16 5.44 16 0 16 C0 10.72 0 5.44 0 0 Z " fill="#000000" transform="translate(184,300)"/>
<path d="M0 0 C5.28 0 10.56 0 16 0 C16 5.28 16 10.56 16 16 C10.72 16 5.44 16 0 16 C0 10.72 0 5.44 0 0 Z " fill="#000000" transform="translate(64,300)"/>
<path d="M0 0 C5.28 0 10.56 0 16 0 C16 5.28 16 10.56 16 16 C10.72 16 5.44 16 0 16 C0 10.72 0 5.44 0 0 Z " fill="#000000" transform="translate(312,260)"/>
<path d="M0 0 C5.28 0 10.56 0 16 0 C16 5.28 16 10.56 16 16 C10.72 16 5.44 16 0 16 C0 10.72 0 5.44 0 0 Z " fill="#000000" transform="translate(64,260)"/>
<path d="M0 0 C5.28 0 10.56 0 16 0 C16 5.28 16 10.56 16 16 C10.72 16 5.44 16 0 16 C0 10.72 0 5.44 0 0 Z " fill="#000000" transform="translate(312,220)"/>
<path d="M0 0 C5.28 0 10.56 0 16 0 C16 5.28 16 10.56 16 16 C10.72 16 5.44 16 0 16 C0 10.72 0 5.44 0 0 Z " fill="#000000" transform="translate(64,220)"/>
<path d="M0 0 C5.28 0 10.56 0 16 0 C16 5.28 16 10.56 16 16 C10.72 16 5.44 16 0 16 C0 10.72 0 5.44 0 0 Z " fill="#000000" transform="translate(312,180)"/>
<path d="M0 0 C5.28 0 10.56 0 16 0 C16 5.28 16 10.56 16 16 C10.72 16 5.44 16 0 16 C0 10.72 0 5.44 0 0 Z " fill="#000000" transform="translate(64,180)"/>
<path d="M0 0 C4.0743356 0.84881992 5.54405875 2.30225596 8 5.625 C8.625 8.625 8.625 8.625 8 11.625 C5.54405875 14.94774404 4.0743356 16.40118008 0 17.25 C-4.0743356 16.40118008 -5.54405875 14.94774404 -8 11.625 C-8.625 8.625 -8.625 8.625 -8 5.625 C-5.54405875 2.30225596 -4.0743356 0.84881992 0 0 Z " fill="#040608" transform="translate(196,231.375)"/>
<path d="M0 0 C4.0743356 0.84881992 5.54405875 2.30225596 8 5.625 C8.625 8.625 8.625 8.625 8 11.625 C5.54405875 14.94774404 4.0743356 16.40118008 0 17.25 C-4.0743356 16.40118008 -5.54405875 14.94774404 -8 11.625 C-8.625 8.625 -8.625 8.625 -8 5.625 C-5.54405875 2.30225596 -4.0743356 0.84881992 0 0 Z " fill="#0B0B0B" transform="translate(196,167.375)"/>
<path d="M0 0 C2.64 1.65 5.28 3.3 8 5 C7.01 7.97 6.02 10.94 5 14 C2.03 14 -0.94 14 -4 14 C-6 7.375 -6 7.375 -6 4 C-3.5625 2.375 -3.5625 2.375 -1 1 C-0.67 0.67 -0.34 0.34 0 0 Z " fill="#F6D57B" transform="translate(109,67)"/>
<path d="M0 0 C3.67882073 3.28466137 5.75150101 6.66360908 8 11 C8 11.66 8 12.32 8 13 C3.38 13 -1.24 13 -6 13 C-4.30119563 7.90358688 -2.69062201 4.48437002 0 0 Z " fill="#F2AE59" transform="translate(281,99)"/>
<path d="M0 0 C4.62 0 9.24 0 14 0 C12.02 4.29 10.04 8.58 8 13 C7.34 13 6.68 13 6 13 C4.02 8.71 2.04 4.42 0 0 Z " fill="#F5AF5A" transform="translate(351,56)"/>
<path d="M0 0 C0.66 0 1.32 0 2 0 C5 5.75 5 5.75 5 8 C2.03 8 -0.94 8 -4 8 C-2.68 5.36 -1.36 2.72 0 0 Z " fill="#EAA856" transform="translate(357,104)"/>
<path d="M0 0 C2.97 0 5.94 0 9 0 C7.68 2.64 6.36 5.28 5 8 C4.34 8 3.68 8 3 8 C0 2.25 0 2.25 0 0 Z " fill="#EFAB58" transform="translate(278,56)"/>
<path d="M0 0 C2.64 0 5.28 0 8 0 C6.125 4.75 6.125 4.75 5 7 C4.34 7 3.68 7 3 7 C2.01 4.69 1.02 2.38 0 0 Z " fill="#EEAB58" transform="translate(316,128)"/>
<path d="M0 0 C0.66 0 1.32 0 2 0 C2.99 2.31 3.98 4.62 5 7 C2.36 7 -0.28 7 -3 7 C-1.125 2.25 -1.125 2.25 0 0 Z " fill="#EFAC58" transform="translate(319,33)"/>
</svg>
